<svg width="128" height="128" viewBox="0 0 128 128" xmlns="http://www.w3.org/2000/svg">
  <defs>
    <linearGradient id="bg" x1="0" y1="0" x2="0" y2="1">
      <stop offset="0" stop-color="#5A92F5"/><stop offset="1" stop-color="#2A57CC"/>
    </linearGradient>
    <clipPath id="r"><rect width="128" height="128" rx="28"/></clipPath>
  </defs>
  <g clip-path="url(#r)">
    <rect width="128" height="128" fill="url(#bg)"/>
    <rect x="24" y="72" width="80" height="30" rx="8" fill="#fff"/>
    <rect x="32" y="79" width="15" height="2.6" rx="1.3" fill="#E3E9F2"/>
    <rect x="32" y="84.5" width="10" height="2.6" rx="1.3" fill="#E3E9F2"/>
    <circle cx="93" cy="81" r="3.4" fill="#38BDF8"/>
    <rect x="38" y="92" width="52" height="5" rx="2.5" fill="#3F4B5E"/>
    <rect x="38" y="20" width="52" height="58" rx="4" fill="#fff" stroke="#DCE3EE" stroke-width=".6"/>
    <rect x="44" y="27" width="15" height="17" rx="2" fill="#C7DBF7"/>
    <rect x="63" y="28" width="22" height="3" rx="1.5" fill="#CAD6E4"/>
    <rect x="63" y="34" width="22" height="3" rx="1.5" fill="#CAD6E4"/>
    <rect x="63" y="40" width="16" height="3" rx="1.5" fill="#CAD6E4"/>
    <rect x="44" y="50" width="40" height="3" rx="1.5" fill="#CAD6E4"/>
    <rect x="44" y="56" width="40" height="3" rx="1.5" fill="#CAD6E4"/>
    <rect x="44" y="62" width="40" height="3" rx="1.5" fill="#CAD6E4"/>
    <rect x="44" y="68" width="28" height="3" rx="1.5" fill="#CAD6E4"/>
    <circle cx="97" cy="97" r="19" fill="#fff"/>
    <circle cx="97" cy="97" r="16.5" fill="#22C55E"/>
    <path d="M88 97 L94.5 104 L106 90" fill="none" stroke="#fff" stroke-width="5" stroke-linecap="round" stroke-linejoin="round"/>
  </g>
</svg>
